REM DIRINDEX 1\2\4,1\2\5,1\3\6,1\3\7,1\3\8
REM DIRNAME cjc094,folder01,folder02,folder03,folder04,folder05,folder06,folder07
TITLE ""
FILE "LV1_016_WORDS.mp3" MP3
  TRACK 01 AUDIO
    TITLE "0:"
    INDEX 01 00:00:00
  TRACK 02 AUDIO
    TITLE "6:cjc094_0596"
    INDEX 01 00:00:05
  TRACK 03 AUDIO
    TITLE "0:"
    INDEX 01 00:01:56
  TRACK 04 AUDIO
    TITLE "7:cjc094_0597"
    INDEX 01 00:02:38
  TRACK 05 AUDIO
    TITLE "0:"
    INDEX 01 00:03:37
  TRACK 06 AUDIO
    TITLE "8:cjc094_0598"
    INDEX 01 00:03:51
  TRACK 07 AUDIO
    TITLE "0:"
    INDEX 01 00:04:70
  TRACK 08 AUDIO
    TITLE "7:cjc094_0599"
    INDEX 01 00:05:42
  TRACK 09 AUDIO
    TITLE "0:"
    INDEX 01 00:06:61
  TRACK 10 AUDIO
    TITLE "8:cjc094_0600"
    INDEX 01 00:07:05
  TRACK 11 AUDIO
    TITLE "0:"
    INDEX 01 00:08:56
  TRACK 12 AUDIO
    TITLE "7:cjc094_0601"
    INDEX 01 00:09:38
  TRACK 13 AUDIO
    TITLE "0:"
    INDEX 01 00:10:35
  TRACK 14 AUDIO
    TITLE "8:cjc094_0602"
    INDEX 01 00:10:49
  TRACK 15 AUDIO
    TITLE "0:"
    INDEX 01 00:13:33
  TRACK 16 AUDIO
    TITLE "7:cjc094_0603"
    INDEX 01 00:14:02
  TRACK 17 AUDIO
    TITLE "0:"
    INDEX 01 00:15:11
  TRACK 18 AUDIO
    TITLE "8:cjc094_0604"
    INDEX 01 00:15:27
  TRACK 19 AUDIO
    TITLE "0:"
    INDEX 01 00:18:19
  TRACK 20 AUDIO
    TITLE "7:cjc094_0605"
    INDEX 01 00:18:64
  TRACK 21 AUDIO
    TITLE "0:"
    INDEX 01 00:20:04
  TRACK 22 AUDIO
    TITLE "8:cjc094_0606"
    INDEX 01 00:20:14
  TRACK 23 AUDIO
    TITLE "0:"
    INDEX 01 00:22:27
  TRACK 24 AUDIO
    TITLE "7:cjc094_0607"
    INDEX 01 00:23:03
  TRACK 25 AUDIO
    TITLE "0:"
    INDEX 01 00:24:10
  TRACK 26 AUDIO
    TITLE "8:cjc094_0608"
    INDEX 01 00:24:29
  TRACK 27 AUDIO
    TITLE "0:"
    INDEX 01 00:25:39
  TRACK 28 AUDIO
    TITLE "7:cjc094_0609"
    INDEX 01 00:26:07
  TRACK 29 AUDIO
    TITLE "0:"
    INDEX 01 00:27:04
  TRACK 30 AUDIO
    TITLE "8:cjc094_0610"
    INDEX 01 00:27:18
  TRACK 31 AUDIO
    TITLE "0:"
    INDEX 01 00:28:45
  TRACK 32 AUDIO
    TITLE "7:cjc094_0611"
    INDEX 01 00:29:15
  TRACK 33 AUDIO
    TITLE "0:"
    INDEX 01 00:29:72
  TRACK 34 AUDIO
    TITLE "8:cjc094_0612"
    INDEX 01 00:30:22
  TRACK 35 AUDIO
    TITLE "0:"
    INDEX 01 00:32:07
  TRACK 36 AUDIO
    TITLE "7:cjc094_0613"
    INDEX 01 00:32:52
  TRACK 37 AUDIO
    TITLE "0:"
    INDEX 01 00:33:32
  TRACK 38 AUDIO
    TITLE "8:cjc094_0614"
    INDEX 01 00:33:56
  TRACK 39 AUDIO
    TITLE "0:"
    INDEX 01 00:34:57
  TRACK 40 AUDIO
    TITLE "7:cjc094_0615"
    INDEX 01 00:35:29
  TRACK 41 AUDIO
    TITLE "0:"
    INDEX 01 00:36:21
  TRACK 42 AUDIO
    TITLE "8:cjc094_0616"
    INDEX 01 00:36:38
  TRACK 43 AUDIO
    TITLE "0:"
    INDEX 01 00:40:03
  TRACK 44 AUDIO
    TITLE "7:cjc094_0617"
    INDEX 01 00:40:52
  TRACK 45 AUDIO
    TITLE "0:"
    INDEX 01 00:41:57
  TRACK 46 AUDIO
    TITLE "8:cjc094_0618"
    INDEX 01 00:41:65
  TRACK 47 AUDIO
    TITLE "0:"
    INDEX 01 00:43:33
  TRACK 48 AUDIO
    TITLE "7:cjc094_0619"
    INDEX 01 00:44:03
  TRACK 49 AUDIO
    TITLE "0:"
    INDEX 01 00:45:08
  TRACK 50 AUDIO
    TITLE "8:cjc094_0620"
    INDEX 01 00:45:20
  TRACK 51 AUDIO
    TITLE "0:"
    INDEX 01 00:47:19
  TRACK 52 AUDIO
    TITLE "7:cjc094_0621"
    INDEX 01 00:47:72
  TRACK 53 AUDIO
    TITLE "0:"
    INDEX 01 00:48:73
  TRACK 54 AUDIO
    TITLE "8:cjc094_0622"
    INDEX 01 00:49:12
  TRACK 55 AUDIO
    TITLE "0:"
    INDEX 01 00:54:62
  TRACK 56 AUDIO
    TITLE "7:cjc094_0623"
    INDEX 01 00:55:32
  TRACK 57 AUDIO
    TITLE "0:"
    INDEX 01 00:56:45
  TRACK 58 AUDIO
    TITLE "8:cjc094_0624"
    INDEX 01 00:56:61
  TRACK 59 AUDIO
    TITLE "0:"
    INDEX 01 00:58:71
  TRACK 60 AUDIO
    TITLE "7:cjc094_0625"
    INDEX 01 00:59:43
  TRACK 61 AUDIO
    TITLE "0:"
    INDEX 01 01:00:33
  TRACK 62 AUDIO
    TITLE "8:cjc094_0626"
    INDEX 01 01:00:49
  TRACK 63 AUDIO
    TITLE "0:"
    INDEX 01 01:02:50
  TRACK 64 AUDIO
    TITLE "7:cjc094_0627"
    INDEX 01 01:03:26
  TRACK 65 AUDIO
    TITLE "0:"
    INDEX 01 01:04:21
  TRACK 66 AUDIO
    TITLE "8:cjc094_0628"
    INDEX 01 01:04:35
  TRACK 67 AUDIO
    TITLE "0:"
    INDEX 01 01:07:21
  TRACK 68 AUDIO
    TITLE "7:cjc094_0629"
    INDEX 01 01:07:66
  TRACK 69 AUDIO
    TITLE "0:"
    INDEX 01 01:08:60
  TRACK 70 AUDIO
    TITLE "8:cjc094_0630"
    INDEX 01 01:09:01
  TRACK 71 AUDIO
    TITLE "0:"
    INDEX 01 01:10:00
